<mxfile host="app.diagrams.net" agent="Mozilla/5.0 (Windows NT 10.0; Win64; x64) AppleWebKit/537.36 (KHTML, like Gecko) Chrome/134.0.0.0 Safari/537.36" version="26.1.0">
  <diagram name="第 1 页" id="wddlYojNnDZnZPJHvPj-">
    <mxGraphModel dx="2619" dy="511" grid="1" gridSize="10" guides="1" tooltips="1" connect="1" arrows="1" fold="1" page="1" pageScale="1" pageWidth="827" pageHeight="1169" math="0" shadow="0">
      <root>
        <mxCell id="0" />
        <mxCell id="1" parent="0" />
        <mxCell id="QWlY1UZgRn8w6jGNCTAx-6" value="" style="endArrow=none;dashed=1;html=1;rounded=0;fillColor=#f8cecc;strokeColor=#b85450;" edge="1" parent="1">
          <mxGeometry width="50" height="50" relative="1" as="geometry">
            <mxPoint x="-520" y="560" as="sourcePoint" />
            <mxPoint x="-520" y="280" as="targetPoint" />
          </mxGeometry>
        </mxCell>
        <mxCell id="QWlY1UZgRn8w6jGNCTAx-1" value="管理信息大区" style="rounded=0;whiteSpace=wrap;html=1;verticalAlign=top;fillColor=#CCE5FF;fontSize=14;fontStyle=1" vertex="1" parent="1">
          <mxGeometry x="-890" y="280" width="310" height="280" as="geometry" />
        </mxCell>
        <mxCell id="QWlY1UZgRn8w6jGNCTAx-2" value="互联网大区" style="rounded=0;whiteSpace=wrap;html=1;fillColor=#CCE5FF;verticalAlign=top;fontSize=14;fontStyle=1" vertex="1" parent="1">
          <mxGeometry x="-450" y="280" width="160" height="280" as="geometry" />
        </mxCell>
        <mxCell id="QWlY1UZgRn8w6jGNCTAx-3" value="互联网" style="rounded=0;whiteSpace=wrap;html=1;fillColor=#CCE5FF;verticalAlign=top;fontSize=14;fontStyle=1" vertex="1" parent="1">
          <mxGeometry x="-160" y="280" width="160" height="280" as="geometry" />
        </mxCell>
        <mxCell id="QWlY1UZgRn8w6jGNCTAx-4" value="" style="shape=flexArrow;endArrow=classic;html=1;rounded=0;endWidth=16.27906976744186;endSize=4.465116279069767;fillColor=#d5e8d4;strokeColor=#82b366;" edge="1" parent="1">
          <mxGeometry width="50" height="50" relative="1" as="geometry">
            <mxPoint x="-570" y="490" as="sourcePoint" />
            <mxPoint x="-460" y="490" as="targetPoint" />
          </mxGeometry>
        </mxCell>
        <mxCell id="QWlY1UZgRn8w6jGNCTAx-5" value="" style="shape=flexArrow;endArrow=classic;html=1;rounded=0;endWidth=16.27906976744186;endSize=4.465116279069767;fillColor=#d5e8d4;strokeColor=#82b366;" edge="1" parent="1">
          <mxGeometry width="50" height="50" relative="1" as="geometry">
            <mxPoint x="-460" y="350" as="sourcePoint" />
            <mxPoint x="-570" y="350" as="targetPoint" />
          </mxGeometry>
        </mxCell>
        <mxCell id="QWlY1UZgRn8w6jGNCTAx-7" value="逻辑隔离装置" style="rounded=0;whiteSpace=wrap;html=1;fillColor=#FFCCCC;" vertex="1" parent="1">
          <mxGeometry x="-560" y="395" width="80" height="50" as="geometry" />
        </mxCell>
        <mxCell id="QWlY1UZgRn8w6jGNCTAx-8" value="云平台" style="rounded=0;whiteSpace=wrap;html=1;verticalAlign=top;fillColor=#CCFFFF;" vertex="1" parent="1">
          <mxGeometry x="-720" y="340" width="120" height="200" as="geometry" />
        </mxCell>
        <mxCell id="QWlY1UZgRn8w6jGNCTAx-11" value="数据库" style="shape=cylinder3;whiteSpace=wrap;html=1;boundedLbl=1;backgroundOutline=1;size=15;fontSize=10;" vertex="1" parent="1">
          <mxGeometry x="-690" y="465" width="60" height="50" as="geometry" />
        </mxCell>
        <mxCell id="QWlY1UZgRn8w6jGNCTAx-12" value="&lt;p class=&quot;MsoNormal&quot;&gt;&lt;font style=&quot;&quot; face=&quot;Helvetica&quot;&gt;业务系统运维精益化管理系统&lt;/font&gt;&lt;/p&gt;" style="rounded=0;whiteSpace=wrap;html=1;fontSize=10;fontStyle=0" vertex="1" parent="1">
          <mxGeometry x="-705" y="370" width="90" height="60" as="geometry" />
        </mxCell>
        <mxCell id="QWlY1UZgRn8w6jGNCTAx-13" value="" style="shape=flexArrow;endArrow=classic;startArrow=classic;html=1;rounded=0;width=5.5813953488372094;startSize=3.516279069767442;endWidth=8.101676581936182;endSize=3.516279069767442;startWidth=8.101676581936182;fillColor=#ffe6cc;strokeColor=#d79b00;" edge="1" parent="1">
          <mxGeometry width="100" height="100" relative="1" as="geometry">
            <mxPoint x="-660.72" y="473.38" as="sourcePoint" />
            <mxPoint x="-661" y="430" as="targetPoint" />
          </mxGeometry>
        </mxCell>
        <mxCell id="QWlY1UZgRn8w6jGNCTAx-14" value="集成应用&lt;div&gt;&lt;br&gt;&lt;/div&gt;&lt;div&gt;&lt;div&gt;&lt;font style=&quot;font-size: 9px;&quot;&gt;统一权限管理平台ISC&lt;/font&gt;&lt;/div&gt;&lt;div&gt;&lt;font style=&quot;font-size: 9px;&quot;&gt;精卫智能运维平台&lt;/font&gt;&lt;/div&gt;&lt;/div&gt;" style="rounded=0;whiteSpace=wrap;html=1;" vertex="1" parent="1">
          <mxGeometry x="-880" y="360" width="120" height="80" as="geometry" />
        </mxCell>
        <mxCell id="QWlY1UZgRn8w6jGNCTAx-15" value="" style="shape=flexArrow;endArrow=classic;startArrow=classic;html=1;rounded=0;width=5.5813953488372094;startSize=3.516279069767442;endWidth=8.101676581936182;endSize=3.516279069767442;startWidth=8.101676581936182;fillColor=#ffe6cc;strokeColor=#d79b00;entryX=0;entryY=0.5;entryDx=0;entryDy=0;exitX=1;exitY=0.5;exitDx=0;exitDy=0;" edge="1" parent="1" source="QWlY1UZgRn8w6jGNCTAx-14" target="QWlY1UZgRn8w6jGNCTAx-12">
          <mxGeometry width="100" height="100" relative="1" as="geometry">
            <mxPoint x="-739.72" y="421.69" as="sourcePoint" />
            <mxPoint x="-740" y="378.31" as="targetPoint" />
          </mxGeometry>
        </mxCell>
        <mxCell id="QWlY1UZgRn8w6jGNCTAx-16" value="省侧" style="rounded=0;whiteSpace=wrap;html=1;fillColor=#d5e8d4;strokeColor=#82b366;" vertex="1" parent="1">
          <mxGeometry x="-880" y="510" width="67" height="25" as="geometry" />
        </mxCell>
        <mxCell id="QWlY1UZgRn8w6jGNCTAx-17" value="" style="endArrow=none;dashed=1;html=1;rounded=0;fillColor=#f8cecc;strokeColor=#b85450;entryX=0.936;entryY=0.003;entryDx=0;entryDy=0;entryPerimeter=0;" edge="1" parent="1" target="QWlY1UZgRn8w6jGNCTAx-8">
          <mxGeometry width="50" height="50" relative="1" as="geometry">
            <mxPoint x="-608" y="540" as="sourcePoint" />
            <mxPoint x="-610" y="350" as="targetPoint" />
          </mxGeometry>
        </mxCell>
        <mxCell id="QWlY1UZgRn8w6jGNCTAx-19" value="云平台边界" style="text;html=1;align=center;verticalAlign=middle;whiteSpace=wrap;rounded=0;fontColor=#FF0000;fontSize=10;" vertex="1" parent="1">
          <mxGeometry x="-640" y="430" width="60" height="25" as="geometry" />
        </mxCell>
      </root>
    </mxGraphModel>
  </diagram>
</mxfile>
